# xmcd
#
# Track frame offsets:
#	150
#	12630
#	24496
#	37447
#	48761
#	63851
#	77961
#	89106
#	100856
#	112459
#	122652
#	133284
#	146308
#	159599
#	174136
#	201546
#
# Disc length: 4440 seconds
#
# Revision: 1
# Processed by: cddbd v1.5.1PL2 Copyright (c) Steve Scherf et al.
# Submitted via: audiograbber 1.83.01
#
DISCID=ec115610
DTITLE=Nancy Wilson - Save your love for me
DYEAR=2005
DGENRE=Blues
TTITLE0=Save your love for me
TTITLE1=In the dark
TTITLE2=Don't go to strangers
TTITLE3=This bitter earth
TTITLE4=Willow weep for me
TTITLE5=All night long
TTITLE6=Gee baby ain't I good to you
TTITLE7=Please send me someone to love
TTITLE8=Just for a thrill
TTITLE9=Born to be blue
TTITLE10=I wanna be loved
TTITLE11=Make me a present of you
TTITLE12=Blue prelude
TTITLE13=Since I fell for you
TTITLE14=Don't take your love from me
TTITLE15=<data track>
EXTD=complete title:\n"Save you love for me\nNandy Wilson\nsings the great blue
EXTD=s ballads"
EXTT0=
EXTT1=
EXTT2=
EXTT3=
EXTT4=
EXTT5=
EXTT6=
EXTT7=
EXTT8=
EXTT9=
EXTT10=
EXTT11=
EXTT12=
EXTT13=
EXTT14=
EXTT15=
PLAYORDER=
